<?xml version="1.0" encoding="UTF-8" standalone="no"?>
<svg width="46px" height="49px" viewBox="0 0 46 49" version="1.1" xmlns="http://www.w3.org/2000/svg" xmlns:xlink="http://www.w3.org/1999/xlink">
    <!-- Generator: Sketch 3.6.1 (26313) - http://www.bohemiancoding.com/sketch -->
    <title>Group</title>
    <desc>Created with Sketch.</desc>
    <defs></defs>
    <g id="Page-1" stroke="none" stroke-width="1" fill="none" fill-rule="evenodd">
        <g id="layout--16-copy-3" transform="translate(-385.000000, -2007.000000)" stroke="#4C4A75" stroke-width="2">
            <g id="Group" transform="translate(386.000000, 2008.000000)">
                <path d="M9.42857143,14.1 C11.4714286,15.745 12.8857143,17.2333333 15.7142857,17.2333333 C20.5071429,17.2333333 24.8285714,15.04 26.7142857,10.9666667 C28.1285714,14.1 31.2714286,15.6666667 34.5714286,15.6666667" id="Shape"></path>
                <path d="M15.2428571,29.2966667 L3.3,35.7983333 C1.25714286,36.895 0,39.01 0,41.2816667 L0,47 L44,47 L44,41.2816667 C44,39.01 42.7428571,36.895 40.7,35.7983333 L28.6785714,29.2966667" id="Shape"></path>
                <path d="M22,31.3333333 L22,31.3333333 C15.0857143,31.3333333 9.42857143,25.6933333 9.42857143,18.8 L9.42857143,12.5333333 C9.42857143,5.64 15.0857143,0 22,0 L22,0 C28.9142857,0 34.5714286,5.64 34.5714286,12.5333333 L34.5714286,18.8 C34.5714286,25.6933333 28.9142857,31.3333333 22,31.3333333 L22,31.3333333 Z" id="Shape"></path>
            </g>
        </g>
    </g>
</svg>