<?xml version="1.0" encoding="UTF-8" standalone="no"?>
<svg width="203px" height="58px" viewBox="0 0 203 58" version="1.1" xmlns="http://www.w3.org/2000/svg" xmlns:xlink="http://www.w3.org/1999/xlink">
    <!-- Generator: Sketch 3.6.1 (26313) - http://www.bohemiancoding.com/sketch -->
    <title>logo</title>
    <desc>Created with Sketch.</desc>
    <defs></defs>
    <g id="Page-1" stroke="none" stroke-width="1" fill="none" fill-rule="evenodd">
        <g id="layout--16" transform="translate(-187.000000, -126.000000)">
            <g id="logo" transform="translate(187.000000, 126.000000)">
                <g id="Group">
                    <path d="M0,55.4222222 L14.1777778,55.4222222 L14.1777778,-3.72915316e-16 L0,-3.72915316e-16 L0,55.4222222 Z" id="Rectangle-109" fill="#4C4A75"></path>
                    <rect id="Rectangle-134" fill="#4C4A75" transform="translate(61.222222, 48.977778) scale(1, -1) translate(-61.222222, -48.977778) " x="43.8222222" y="42.5333333" width="34.8" height="12.8888889"></rect>
                    <rect id="Rectangle-144" fill="#12D7CC" x="0" y="0" width="34.8" height="12.8888889"></rect>
                    <path d="M43.8222222,47.2570279 L58,47.2570279 L58,4.72369461 L43.8222222,4.72369461 L43.8222222,47.2570279 Z" id="Rectangle-135" fill="#12D7CC" transform="translate(51.698394, 23.628514) scale(1, -1) translate(-51.698394, -23.628514) "></path>
                    <rect id="Rectangle-136" fill="#4C4A75" x="14.1777778" y="23.2" width="15.4666667" height="11.6"></rect>
                    <path d="M83.1333333,0 L97.3111111,0 L97.3111111,36.7333333 C97.3111111,39.9555556 99.2444444,43.8222222 100.533333,45.1111111 C94.0888889,43.1777778 88.9333333,41.8888889 83.7777778,36.0888889 C83.7777778,36.0888889 83.1333333,0 83.1333333,0 Z" id="Rectangle-137" fill="#12D7CC"></path>
                    <path d="M105.044444,45.1111111 C112.777778,45.1111111 112.133333,37.3777778 112.133333,30.9333333 C112.133333,19.1411748 112.133333,0 112.133333,0 L126.311111,0 L126.311111,34.1555556 C126.311111,48.3591832 120.708198,58 105.044444,57.3555556 C89.380691,56.7111111 85.0666667,45.1111111 83.7777778,36.0888889 C88.9333333,41.8888889 97.3111111,45.1111111 105.044444,45.1111111 Z" id="Rectangle-138" fill="#4C4A75"></path>
                    <path d="M168.2,0 L183.666667,0 L146.288889,55.4222222 L130.822222,55.4222222 L168.2,0 Z" id="Rectangle-139" fill="#4C4A75"></path>
                    <path d="M168.2,0 L183.666667,0 L146.288889,55.4222222 L130.822222,55.4222222 L168.2,0 Z" id="Rectangle-142" fill="#12D7CC" transform="translate(157.244444, 27.711111) scale(-1, 1) translate(-157.244444, -27.711111) "></path>
                    <rect id="Rectangle-141" fill="#12D7CC" transform="translate(195.911111, 7.088889) scale(1, -1) translate(-195.911111, -7.088889) " x="188.822222" y="0" width="14.1777778" height="14.1777778"></rect>
                    <rect id="Rectangle-140" fill="#4C4A75" transform="translate(195.911111, 34.800000) scale(1, -1) translate(-195.911111, -34.800000) " x="188.822222" y="14.1777778" width="14.1777778" height="41.2444444"></rect>
                </g>
            </g>
        </g>
    </g>
</svg>