<?xml version="1.0" encoding="UTF-8" standalone="no"?>
<svg width="62px" height="62px" viewBox="0 0 62 62" version="1.1" xmlns="http://www.w3.org/2000/svg" xmlns:xlink="http://www.w3.org/1999/xlink">
    <!-- Generator: Sketch 3.6.1 (26313) - http://www.bohemiancoding.com/sketch -->
    <title>design-64px-outline_tablet-mobile</title>
    <desc>Created with Sketch.</desc>
    <defs></defs>
    <g id="Page-1" stroke="none" stroke-width="1" fill="none" fill-rule="evenodd">
        <g id="layout--16-copy-2" transform="translate(-181.000000, -1225.000000)" stroke-width="2" stroke="#0DD7CD">
            <g id="design-64px-outline_tablet-mobile" transform="translate(182.000000, 1226.000000)">
                <g id="Group">
                    <path d="M32,44 L6,44 C2.7,44 0,41.3 0,38 L0,6 C0,2.7 2.7,0 6,0 L54,0 C57.3,0 60,2.7 60,6 L60,38 C60,41.3 57.3,44 54,44 L54,44" id="Shape"></path>
                    <path d="M32,36 L12,36 L12,8 L52,8 L52,24" id="Shape"></path>
                    <path d="M50,60 L36,60 C33.8,60 32,58.2 32,56 L32,28 C32,25.8 33.8,24 36,24 L50,24 C52.2,24 54,25.8 54,28 L54,56 C54,58.2 52.2,60 50,60 L50,60 Z" id="Shape"></path>
                    <path d="M6,20 L6,24" id="Shape"></path>
                    <path d="M32,32 L54,32" id="Shape"></path>
                    <path d="M32,48 L54,48" id="Shape"></path>
                    <path d="M42,54 L44,54" id="Shape"></path>
                </g>
            </g>
        </g>
    </g>
</svg>