<?xml version="1.0" encoding="UTF-8" standalone="no"?>
<svg width="62px" height="54px" viewBox="0 0 62 54" version="1.1" xmlns="http://www.w3.org/2000/svg" xmlns:xlink="http://www.w3.org/1999/xlink">
    <!-- Generator: Sketch 3.6.1 (26313) - http://www.bohemiancoding.com/sketch -->
    <title>Group 6</title>
    <desc>Created with Sketch.</desc>
    <defs></defs>
    <g id="Page-1" stroke="none" stroke-width="1" fill="none" fill-rule="evenodd">
        <g id="layout--16-copy-2" transform="translate(-754.000000, -947.000000)" stroke-width="2" stroke="#0DD7CD">
            <g id="Group-6" transform="translate(755.000000, 948.000000)">
                <g id="design-64px-outline_code-editor">
                    <g id="Group">
                        <rect id="Rectangle-path" x="0" y="0" width="60" height="52"></rect>
                        <path d="M0,12 L60,12" id="Shape"></path>
                        <path d="M8,6 L10,6" id="Shape"></path>
                        <path d="M8,20 L14,20" id="Shape"></path>
                        <path d="M8,32 L12,32" id="Shape"></path>
                        <path d="M8,26 L10,26" id="Shape"></path>
                        <path d="M8,38 L10,38" id="Shape"></path>
                        <path d="M8,44 L10,44" id="Shape"></path>
                        <path d="M30,20 L34,20" id="Shape"></path>
                        <path d="M34,26 L42,26" id="Shape"></path>
                        <path d="M38,32 L52,32" id="Shape"></path>
                        <path d="M34,38 L42,38" id="Shape"></path>
                        <path d="M30,44 L34,44" id="Shape"></path>
                        <path d="M22,12 L22,52" id="Shape"></path>
                    </g>
                </g>
            </g>
        </g>
    </g>
</svg>