<?xml version="1.0" encoding="UTF-8" standalone="no"?>
<svg width="52px" height="62px" viewBox="0 0 52 62" version="1.1" xmlns="http://www.w3.org/2000/svg" xmlns:xlink="http://www.w3.org/1999/xlink">
    <!-- Generator: Sketch 3.6.1 (26313) - http://www.bohemiancoding.com/sketch -->
    <title>design-64px-outline_mobile-design</title>
    <desc>Created with Sketch.</desc>
    <defs></defs>
    <g id="Page-1" stroke="none" stroke-width="1" fill="none" fill-rule="evenodd">
        <g id="layout--16-copy-2" transform="translate(-759.000000, -1225.000000)" stroke-width="2" stroke="#0DD7CD">
            <g id="design-64px-outline_mobile-design" transform="translate(760.000000, 1226.000000)">
                <g id="Group">
                    <path d="M40,19.2 L40,56 C40,58.2 38.2,60 36,60 L4,60 C1.8,60 0,58.2 0,56 L0,4 C0,1.8 1.8,0 4,0 L36,0 C38.2,0 40,1.8 40,4 L40,7.2" id="Shape"></path>
                    <path d="M34,25.2 L34,44 L6,44 L6,8 L34,8 L34,13.2" id="Shape"></path>
                    <circle id="Oval" cx="20" cy="52" r="2"></circle>
                    <path d="M33,26.275 L27,20.275 L42,5.275 C43.7,3.575 46.3,3.575 48,5.275 L48,5.275 C49.7,6.975 49.7,9.575 48,11.275 L33,26.275 L33,26.275 Z" id="Shape"></path>
                    <path d="M26.5,26.575 C24.4,24.475 21,24.475 18.9,26.575 C17.6,27.875 17.4,29.575 17.4,30.975 C17.4,32.375 16.4,33.575 14,33.675 C17.3,36.975 23.1,37.475 26.4,34.175 C28.7,31.975 28.4,28.475 26.5,26.575 L26.5,26.575 Z" id="Shape"></path>
                </g>
            </g>
        </g>
    </g>
</svg>