<?xml version="1.0" encoding="UTF-8" standalone="no"?>
<svg width="62px" height="42px" viewBox="0 0 62 42" version="1.1" xmlns="http://www.w3.org/2000/svg" xmlns:xlink="http://www.w3.org/1999/xlink">
    <!-- Generator: Sketch 3.6.1 (26313) - http://www.bohemiancoding.com/sketch -->
    <title>Group 5</title>
    <desc>Created with Sketch.</desc>
    <defs></defs>
    <g id="Page-1" stroke="none" stroke-width="1" fill="none" fill-rule="evenodd">
        <g id="layout--16-copy-2" transform="translate(-181.000000, -953.000000)" stroke="#0DD7CD" stroke-width="2">
            <g id="Group-5" transform="translate(182.000000, 954.000000)">
                <path d="M57,40 L3,40 C1.3,40 0,38.7 0,37 L0,34 L60,34 L60,37 C60,38.7 58.7,40 57,40 L57,40 Z" id="Shape"></path>
                <path d="M6,34 L6,2 C6,0.9 6.9,0 8,0 L52,0 C53.1,0 54,0.9 54,2 L54,34" id="Shape"></path>
                <path d="M42,12 L30,24 L22,16 L16,22" id="Shape"></path>
                <path d="M34,12 L42,12 L42,20" id="Shape"></path>
            </g>
        </g>
    </g>
</svg>